{"title":"The Rock (1996) 1080p BrRip","uid":6891992,"size":4661606110,"categoryP":"video","categoryS":"hd___movies","magnet":"?xt=urn:btih:faecc753cd8230e1bab1361fb430b473d5800265&amp;dn=The+Rock+%281996%29+1080p+BrRip&amp;tr=udp%3A%2F%2Ftracker.openbittorrent.com%3A80&amp;tr=udp%3A%2F%2Fopen.demonii.com%3A1337&amp;tr=udp%3A%2F%2Ftracker.coppersurfer.tk%3A6969&amp;tr=udp%3A%2F%2Fexodus.desync.com%3A6969","seeders":0,"leechers":0,"uploader":"ztorrenter","files":-1,"time":1324049558,"description":"                                   =======================================================\n                                   Come joing us at the new movies site www.moviestorrent.net\n                                   =======================================================\n\nGeneral:\nMovie name                                 : The Rock (1996)\nIMDB Rrating                                : 7.3/10 from 132,397 users\nFormat                                            : Matroska (MKV)\nSubtitle(s)                                     : English (default), French, Spanish\nFile size                                          : 4.34 GiB\nDuration                                         : 2h 16mn\nOverall bit rate                            : 4 557 Kbps\n\n\nVideo:\nFormat                                             : AVC\nFormat/Info                                   : Advanced Video Codec\nFormat profile                               : &lt;a class=&quot;__cf_email__&quot; href=&quot;/cdn-cgi/l/email-protection&quot; data-cfemail=&quot;b0f8d9d7d8f0fc849e80&quot;&gt;[email&amp;#160;protected]&lt;/a&gt;&lt;script cf-hash='f9e31' type=&quot;text/javascript&quot;&gt;\n/* &lt;![CDATA[ */!function(){try{var t=&quot;currentScript&quot;in document?document.currentScript:function(){for(var t=document.getElementsByTagName(&quot;script&quot;),e=t.length;e--;)if(t[e].getAttribute(&quot;cf-hash&quot;))return t[e]}();if(t&amp;&amp;t.previousSibling){var e,r,n,i,c=t.previousSibling,a=c.getAttribute(&quot;data-cfemail&quot;);if(a){for(e=&quot;&quot;,r=parseInt(a.substr(0,2),16),n=2;a.length-n;n+=2)i=parseInt(a.substr(n,2),16)^r,e+=String.fromCharCode(i);e=document.createTextNode(e),c.parentNode.replaceChild(e,c)}}}catch(u){}}();/* ]]&gt; */&lt;/script&gt;\nFormat settings, CABAC            : Yes\nFormat settings, ReFrames      : 3 frames\nCodec ID                                          : V_MPEG4/ISO/AVC\nDuration                                          : 2h 16mn\nBit rate mode                                : Variable\nBit rate                                             : 3 059 Kbps\nMaximum bit rate                       : 25.0 Mbps\nWidth                                               : 1 920 pixels\nHeight                                              : 1 080 pixels\nDisplay aspect ratio                    : 16:9\nFrame rate                                     : 23.976 fps\nColor space                                    : YUV\nChroma subsampling                 : 4:2:0\nBit depth                                         : 8 bits\nScan type                                        : Progressive\nBits/(Pixel*Frame)                     : 0.062\nStream size                                    : 2.82 GiB (65%)\nWriting library                              : x264 core 114 r1924 08d04a4\n\nAudio\nFormat                                            : DTS\nFormat/Info                                  : Digital Theater Systems\nCodec ID                                         : A_DTS\nDuration                                         : 2h 16mn\nBit rate mode                               : Constant\nBit rate                                            : 1 510 Kbps\nChannel(s)                                     : 6 channels\nChannel positions                       : Front: L C R, Side: L R, LFE\nSampling rate                               : 48.0 KHz\nBit depth                                        : 16 bits\nCompression mode                   : Lossy\nStream size                                   : 1.44 GiB (33%)\nLanguage                                       : English\n\n===================================================================\nStoryline:\nA renegade general and his group of U.S. Marines take over Alcatraz and threaten San Francisco Bay with biological weapons. A chemical weapons specialist and the only man to have ever escaped from the Rock attempt to prevent chaos.\n","torrent":{"xt":"urn:btih:faecc753cd8230e1bab1361fb430b473d5800265","amp;dn":"The+Rock+%281996%29+1080p+BrRip","amp;tr":["udp%3A%2F%2Ftracker.openbittorrent.com%3A80","udp%3A%2F%2Fopen.demonii.com%3A1337","udp%3A%2F%2Ftracker.coppersurfer.tk%3A6969","udp%3A%2F%2Fexodus.desync.com%3A6969"],"infoHash":"faecc753cd8230e1bab1361fb430b473d5800265","infoHashBuffer":{"type":"Buffer","data":[250,236,199,83,205,130,48,225,186,177,54,31,180,48,180,115,213,128,2,101]},"announce":[],"urlList":[]}}